<mxfile host="65bd71144e">
    <diagram id="zMBk5H3ilGWOH-BlbfxZ" name="Page-1">
        <mxGraphModel dx="3735" dy="935" grid="1" gridSize="10" guides="1" tooltips="1" connect="1" arrows="1" fold="1" page="1" pageScale="1" pageWidth="850" pageHeight="1100" math="0" shadow="0">
            <root>
                <mxCell id="0"/>
                <mxCell id="1" parent="0"/>
                <mxCell id="4" value="" style="edgeStyle=none;html=1;shadow=0;labelBorderColor=none;" parent="1" source="2" target="3" edge="1">
                    <mxGeometry relative="1" as="geometry"/>
                </mxCell>
                <mxCell id="2" value="api call whack2:&lt;br&gt;&lt;br&gt;Assuming mode was not specified" style="whiteSpace=wrap;html=1;shadow=0;labelBorderColor=none;" parent="1" vertex="1">
                    <mxGeometry x="-400" y="100" width="120" height="60" as="geometry"/>
                </mxCell>
                <mxCell id="6" value="" style="edgeStyle=none;html=1;shadow=0;labelBorderColor=none;" parent="1" source="3" target="5" edge="1">
                    <mxGeometry relative="1" as="geometry"/>
                </mxCell>
                <mxCell id="3" value="&lt;div style=&quot;color: rgb(212 , 212 , 212) ; background-color: rgb(30 , 30 , 30) ; font-family: &amp;#34;menlo&amp;#34; , &amp;#34;monaco&amp;#34; , &amp;#34;courier new&amp;#34; , monospace ; line-height: 18px&quot;&gt;&lt;span style=&quot;color: #dcdcaa&quot;&gt;APIWhack2GetHandler&lt;/span&gt;&lt;/div&gt;" style="whiteSpace=wrap;html=1;shadow=0;labelBorderColor=none;" parent="1" vertex="1">
                    <mxGeometry x="-400" y="240" width="120" height="60" as="geometry"/>
                </mxCell>
                <mxCell id="8" value="" style="edgeStyle=none;html=1;shadow=0;labelBorderColor=none;" parent="1" source="5" target="7" edge="1">
                    <mxGeometry relative="1" as="geometry">
                        <Array as="points">
                            <mxPoint x="-200" y="380"/>
                            <mxPoint x="-200" y="130"/>
                        </Array>
                    </mxGeometry>
                </mxCell>
                <mxCell id="5" value="&lt;div style=&quot;color: rgb(212 , 212 , 212) ; background-color: rgb(30 , 30 , 30) ; font-family: &amp;#34;menlo&amp;#34; , &amp;#34;monaco&amp;#34; , &amp;#34;courier new&amp;#34; , monospace ; line-height: 18px&quot;&gt;&lt;span style=&quot;color: #dcdcaa&quot;&gt;WhackAMole2&lt;/span&gt;&lt;/div&gt;" style="whiteSpace=wrap;html=1;shadow=0;labelBorderColor=none;" parent="1" vertex="1">
                    <mxGeometry x="-400" y="350" width="120" height="60" as="geometry"/>
                </mxCell>
                <mxCell id="12" value="" style="edgeStyle=none;html=1;shadow=0;labelBorderColor=none;" parent="1" source="7" target="11" edge="1">
                    <mxGeometry relative="1" as="geometry"/>
                </mxCell>
                <mxCell id="7" value="Method:&lt;span style=&quot;background-color: rgb(42 , 42 , 42)&quot;&gt;&lt;br&gt;&lt;/span&gt;&lt;span style=&quot;color: rgb(220 , 220 , 170) ; font-family: &amp;#34;menlo&amp;#34; , &amp;#34;monaco&amp;#34; , &amp;#34;courier new&amp;#34; , monospace ; background-color: rgb(30 , 30 , 30)&quot;&gt;WhackAMole2&lt;/span&gt;" style="whiteSpace=wrap;html=1;shadow=0;labelBorderColor=none;" parent="1" vertex="1">
                    <mxGeometry x="-130" y="100" width="120" height="60" as="geometry"/>
                </mxCell>
                <mxCell id="14" value="" style="edgeStyle=none;html=1;shadow=0;labelBorderColor=none;" parent="1" source="11" target="13" edge="1">
                    <mxGeometry relative="1" as="geometry">
                        <Array as="points">
                            <mxPoint x="540" y="270"/>
                            <mxPoint x="540" y="130"/>
                        </Array>
                    </mxGeometry>
                </mxCell>
                <mxCell id="11" value="&lt;div style=&quot;color: rgb(212 , 212 , 212) ; background-color: rgb(30 , 30 , 30) ; font-family: &amp;#34;menlo&amp;#34; , &amp;#34;monaco&amp;#34; , &amp;#34;courier new&amp;#34; , monospace ; line-height: 18px&quot;&gt;&lt;span style=&quot;color: #dcdcaa&quot;&gt;HypnoInit2&lt;/span&gt;&lt;/div&gt;" style="whiteSpace=wrap;html=1;shadow=0;labelBorderColor=none;" parent="1" vertex="1">
                    <mxGeometry x="-130" y="240" width="120" height="60" as="geometry"/>
                </mxCell>
                <mxCell id="16" value="" style="edgeStyle=none;html=1;shadow=0;labelBorderColor=none;" parent="1" source="13" target="15" edge="1">
                    <mxGeometry relative="1" as="geometry"/>
                </mxCell>
                <mxCell id="13" value="Method:&lt;br&gt;&lt;div style=&quot;color: rgb(212 , 212 , 212) ; background-color: rgb(30 , 30 , 30) ; font-family: &amp;#34;menlo&amp;#34; , &amp;#34;monaco&amp;#34; , &amp;#34;courier new&amp;#34; , monospace ; line-height: 18px&quot;&gt;&lt;span style=&quot;color: #dcdcaa&quot;&gt;HypnoInit2&lt;/span&gt;&lt;/div&gt;" style="whiteSpace=wrap;html=1;shadow=0;labelBorderColor=none;" parent="1" vertex="1">
                    <mxGeometry x="600" y="100" width="120" height="60" as="geometry"/>
                </mxCell>
                <mxCell id="18" value="" style="edgeStyle=none;html=1;shadow=0;labelBorderColor=none;" parent="1" source="15" target="17" edge="1">
                    <mxGeometry relative="1" as="geometry"/>
                </mxCell>
                <mxCell id="15" value="&lt;div style=&quot;color: rgb(212 , 212 , 212) ; background-color: rgb(30 , 30 , 30) ; font-family: &amp;#34;menlo&amp;#34; , &amp;#34;monaco&amp;#34; , &amp;#34;courier new&amp;#34; , monospace ; line-height: 18px&quot;&gt;&lt;span style=&quot;color: #dcdcaa&quot;&gt;RetrieveMotionRecordsRange&lt;/span&gt;&lt;/div&gt;&lt;div style=&quot;font-family: &amp;#34;menlo&amp;#34; , &amp;#34;monaco&amp;#34; , &amp;#34;courier new&amp;#34; , monospace ; line-height: 18px&quot;&gt;Using SleepSync&lt;/div&gt;&lt;div style=&quot;font-family: &amp;#34;menlo&amp;#34; , &amp;#34;monaco&amp;#34; , &amp;#34;courier new&amp;#34; , monospace ; line-height: 18px&quot;&gt;Motion&lt;/div&gt;" style="whiteSpace=wrap;html=1;shadow=0;labelBorderColor=none;" parent="1" vertex="1">
                    <mxGeometry x="600" y="240" width="120" height="60" as="geometry"/>
                </mxCell>
                <mxCell id="20" value="Yes" style="edgeStyle=none;html=1;shadow=0;labelBorderColor=none;" parent="1" source="17" target="19" edge="1">
                    <mxGeometry relative="1" as="geometry"/>
                </mxCell>
                <mxCell id="22" value="No" style="edgeStyle=none;html=1;shadow=0;labelBorderColor=none;" parent="1" source="17" target="21" edge="1">
                    <mxGeometry relative="1" as="geometry">
                        <Array as="points">
                            <mxPoint x="780" y="410"/>
                            <mxPoint x="780" y="270"/>
                        </Array>
                    </mxGeometry>
                </mxCell>
                <mxCell id="17" value="Any Motion?" style="rhombus;whiteSpace=wrap;html=1;shadow=0;labelBorderColor=none;" parent="1" vertex="1">
                    <mxGeometry x="620" y="370" width="80" height="80" as="geometry"/>
                </mxCell>
                <mxCell id="41" value="" style="edgeStyle=none;html=1;shadow=0;labelBorderColor=none;" parent="1" source="19" target="40" edge="1">
                    <mxGeometry relative="1" as="geometry"/>
                </mxCell>
                <mxCell id="19" value="&lt;div style=&quot;color: rgb(212 , 212 , 212) ; background-color: rgb(30 , 30 , 30) ; font-family: &amp;#34;menlo&amp;#34; , &amp;#34;monaco&amp;#34; , &amp;#34;courier new&amp;#34; , monospace ; line-height: 18px&quot;&gt;&lt;span style=&quot;color: #dcdcaa&quot;&gt;RetrieveHeartWatchRecordsRange&lt;/span&gt;&lt;/div&gt;" style="whiteSpace=wrap;html=1;shadow=0;labelBorderColor=none;" parent="1" vertex="1">
                    <mxGeometry x="600" y="540" width="120" height="60" as="geometry"/>
                </mxCell>
                <mxCell id="25" value="" style="edgeStyle=none;html=1;shadow=0;labelBorderColor=none;" parent="1" source="21" target="24" edge="1">
                    <mxGeometry relative="1" as="geometry"/>
                </mxCell>
                <mxCell id="21" value="&lt;div style=&quot;color: rgb(212 , 212 , 212) ; background-color: rgb(30 , 30 , 30) ; font-family: &amp;#34;menlo&amp;#34; , &amp;#34;monaco&amp;#34; , &amp;#34;courier new&amp;#34; , monospace ; line-height: 18px&quot;&gt;&lt;span style=&quot;color: #dcdcaa&quot;&gt;MotionFromSleep&lt;/span&gt;&lt;/div&gt;&lt;div style=&quot;font-family: &amp;#34;menlo&amp;#34; , &amp;#34;monaco&amp;#34; , &amp;#34;courier new&amp;#34; , monospace ; line-height: 18px&quot;&gt;Currently appears to create motion at begining of Asleeps&amp;nbsp;&lt;/div&gt;" style="whiteSpace=wrap;html=1;shadow=0;labelBorderColor=none;" parent="1" vertex="1">
                    <mxGeometry x="810" y="190" width="120" height="110" as="geometry"/>
                </mxCell>
                <mxCell id="32" value="No" style="edgeStyle=none;html=1;shadow=0;labelBorderColor=none;" parent="1" source="24" target="31" edge="1">
                    <mxGeometry relative="1" as="geometry">
                        <Array as="points">
                            <mxPoint x="960" y="410"/>
                            <mxPoint x="960" y="240"/>
                        </Array>
                    </mxGeometry>
                </mxCell>
                <mxCell id="38" value="Yes" style="edgeStyle=none;entryX=0.5;entryY=0;entryDx=0;entryDy=0;shadow=0;labelBorderColor=none;html=1;" parent="1" source="24" target="19" edge="1">
                    <mxGeometry relative="1" as="geometry">
                        <mxPoint x="660" y="530" as="targetPoint"/>
                        <Array as="points">
                            <mxPoint x="800" y="410"/>
                            <mxPoint x="800" y="480"/>
                            <mxPoint x="700" y="480"/>
                        </Array>
                    </mxGeometry>
                </mxCell>
                <mxCell id="24" value="Any Motion?" style="rhombus;whiteSpace=wrap;html=1;shadow=0;labelBorderColor=none;" parent="1" vertex="1">
                    <mxGeometry x="830" y="370" width="80" height="80" as="geometry"/>
                </mxCell>
                <mxCell id="27" value="&lt;div style=&quot;color: rgb(212 , 212 , 212) ; background-color: rgb(30 , 30 , 30) ; font-family: &amp;#34;menlo&amp;#34; , &amp;#34;monaco&amp;#34; , &amp;#34;courier new&amp;#34; , monospace ; line-height: 18px&quot;&gt;&lt;div&gt;&lt;span style=&quot;color: #6a9955&quot;&gt;//test modes&lt;/span&gt;&lt;/div&gt;&lt;div&gt;&lt;span style=&quot;color: #569cd6&quot;&gt;const&lt;/span&gt; &lt;span style=&quot;color: #9cdcfe&quot;&gt;Mode_Normal&lt;/span&gt; = &lt;span style=&quot;color: #b5cea8&quot;&gt;0&lt;/span&gt;&lt;/div&gt;&lt;div&gt;&lt;span style=&quot;color: #569cd6&quot;&gt;const&lt;/span&gt; &lt;span style=&quot;color: #9cdcfe&quot;&gt;Mode_NoSleep&lt;/span&gt; = &lt;span style=&quot;color: #b5cea8&quot;&gt;1&lt;/span&gt;&lt;/div&gt;&lt;div&gt;&lt;span style=&quot;color: #569cd6&quot;&gt;const&lt;/span&gt; &lt;span style=&quot;color: #9cdcfe&quot;&gt;Mode_NoWatch&lt;/span&gt; = &lt;span style=&quot;color: #b5cea8&quot;&gt;2&lt;/span&gt;&lt;/div&gt;&lt;br&gt;&lt;div&gt;&lt;span style=&quot;color: #6a9955&quot;&gt;//models&lt;/span&gt;&lt;/div&gt;&lt;div&gt;&lt;span style=&quot;color: #569cd6&quot;&gt;const&lt;/span&gt; &lt;span style=&quot;color: #9cdcfe&quot;&gt;Model_Motion&lt;/span&gt; = &lt;span style=&quot;color: #b5cea8&quot;&gt;0&lt;/span&gt;   &lt;span style=&quot;color: #6a9955&quot;&gt;//Accelerometer motion + HR&lt;/span&gt;&lt;/div&gt;&lt;div&gt;&lt;span style=&quot;color: #569cd6&quot;&gt;const&lt;/span&gt; &lt;span style=&quot;color: #9cdcfe&quot;&gt;Model_NoMotion&lt;/span&gt; = &lt;span style=&quot;color: #b5cea8&quot;&gt;1&lt;/span&gt; &lt;span style=&quot;color: #6a9955&quot;&gt;//Sleep Motion + HR&lt;/span&gt;&lt;/div&gt;&lt;div&gt;&lt;span style=&quot;color: #569cd6&quot;&gt;const&lt;/span&gt; &lt;span style=&quot;color: #9cdcfe&quot;&gt;Model_NoSleep&lt;/span&gt; = &lt;span style=&quot;color: #b5cea8&quot;&gt;2&lt;/span&gt;  &lt;span style=&quot;color: #6a9955&quot;&gt;//Active Energy Motion + HR&lt;/span&gt;&lt;/div&gt;&lt;div&gt;&lt;span style=&quot;color: #569cd6&quot;&gt;const&lt;/span&gt; &lt;span style=&quot;color: #9cdcfe&quot;&gt;Model_Reserved&lt;/span&gt; = &lt;span style=&quot;color: #b5cea8&quot;&gt;3&lt;/span&gt; &lt;span style=&quot;color: #6a9955&quot;&gt;//later&lt;/span&gt;&lt;/div&gt;&lt;/div&gt;" style="text;html=1;resizable=0;autosize=1;align=center;verticalAlign=middle;points=[];fillColor=none;strokeColor=none;rounded=0;" parent="1" vertex="1">
                    <mxGeometry x="-860" y="180" width="380" height="180" as="geometry"/>
                </mxCell>
                <mxCell id="36" value="" style="edgeStyle=none;html=1;entryX=0.5;entryY=0;entryDx=0;entryDy=0;shadow=0;labelBorderColor=none;" parent="1" source="31" target="19" edge="1">
                    <mxGeometry relative="1" as="geometry">
                        <mxPoint x="1070" y="395" as="targetPoint"/>
                        <Array as="points">
                            <mxPoint x="1130" y="520"/>
                            <mxPoint x="760" y="520"/>
                        </Array>
                    </mxGeometry>
                </mxCell>
                <mxCell id="31" value="&lt;div style=&quot;color: rgb(212 , 212 , 212) ; background-color: rgb(30 , 30 , 30) ; font-family: &amp;#34;menlo&amp;#34; , &amp;#34;monaco&amp;#34; , &amp;#34;courier new&amp;#34; , monospace ; line-height: 18px&quot;&gt;&lt;span style=&quot;color: #dcdcaa&quot;&gt;RetrieveEnergyWatchRecordsRange&lt;/span&gt;&lt;/div&gt;Note: appears to&lt;br&gt;&amp;nbsp;directly act as motion&lt;br&gt;&amp;nbsp;just on a different&lt;br&gt;&amp;nbsp;scale" style="whiteSpace=wrap;html=1;shadow=0;labelBorderColor=none;" parent="1" vertex="1">
                    <mxGeometry x="1010" y="190" width="240" height="110" as="geometry"/>
                </mxCell>
                <mxCell id="43" value="" style="edgeStyle=none;html=1;shadow=0;labelBorderColor=none;" parent="1" source="40" target="42" edge="1">
                    <mxGeometry relative="1" as="geometry">
                        <Array as="points">
                            <mxPoint x="1290" y="710"/>
                            <mxPoint x="1290" y="130"/>
                        </Array>
                    </mxGeometry>
                </mxCell>
                <mxCell id="40" value="&lt;div style=&quot;color: rgb(212 , 212 , 212) ; background-color: rgb(30 , 30 , 30) ; font-family: &amp;#34;menlo&amp;#34; , &amp;#34;monaco&amp;#34; , &amp;#34;courier new&amp;#34; , monospace ; line-height: 18px&quot;&gt;&lt;span style=&quot;color: #dcdcaa&quot;&gt;SleepRange&lt;/span&gt;&lt;/div&gt;Creates" style="whiteSpace=wrap;html=1;shadow=0;labelBorderColor=none;" parent="1" vertex="1">
                    <mxGeometry x="600" y="680" width="120" height="60" as="geometry"/>
                </mxCell>
                <mxCell id="45" value="" style="edgeStyle=none;html=1;shadow=0;labelBorderColor=none;" parent="1" source="42" target="44" edge="1">
                    <mxGeometry relative="1" as="geometry"/>
                </mxCell>
                <mxCell id="42" value="Method:&lt;br&gt;&lt;span style=&quot;color: rgb(220 , 220 , 170) ; font-family: &amp;#34;menlo&amp;#34; , &amp;#34;monaco&amp;#34; , &amp;#34;courier new&amp;#34; , monospace ; background-color: rgb(30 , 30 , 30)&quot;&gt;SleepRange&lt;/span&gt;" style="whiteSpace=wrap;html=1;shadow=0;labelBorderColor=none;" parent="1" vertex="1">
                    <mxGeometry x="1420" y="100" width="120" height="60" as="geometry"/>
                </mxCell>
                <mxCell id="47" value="" style="edgeStyle=none;html=1;shadow=0;labelBorderColor=none;" parent="1" source="44" target="46" edge="1">
                    <mxGeometry relative="1" as="geometry"/>
                </mxCell>
                <mxCell id="44" value="&lt;div style=&quot;color: rgb(212 , 212 , 212) ; background-color: rgb(30 , 30 , 30) ; font-family: &amp;#34;menlo&amp;#34; , &amp;#34;monaco&amp;#34; , &amp;#34;courier new&amp;#34; , monospace ; line-height: 18px&quot;&gt;&lt;span style=&quot;color: #dcdcaa&quot;&gt;RetrieveStandRecordsRange&lt;/span&gt;&lt;/div&gt;" style="whiteSpace=wrap;html=1;shadow=0;labelBorderColor=none;" parent="1" vertex="1">
                    <mxGeometry x="1420" y="215" width="120" height="60" as="geometry"/>
                </mxCell>
                <mxCell id="51" value="" style="edgeStyle=none;html=1;shadow=0;labelBorderColor=none;" parent="1" source="46" target="50" edge="1">
                    <mxGeometry relative="1" as="geometry"/>
                </mxCell>
                <mxCell id="46" value="&lt;div style=&quot;color: rgb(212 , 212 , 212) ; background-color: rgb(30 , 30 , 30) ; font-family: &amp;#34;menlo&amp;#34; , &amp;#34;monaco&amp;#34; , &amp;#34;courier new&amp;#34; , monospace ; line-height: 18px&quot;&gt;&lt;span style=&quot;color: #dcdcaa&quot;&gt;RetrieveSleepWatchRecordsRange&lt;/span&gt;&lt;/div&gt;&lt;div style=&quot;font-family: &amp;#34;menlo&amp;#34; , &amp;#34;monaco&amp;#34; , &amp;#34;courier new&amp;#34; , monospace ; line-height: 18px&quot;&gt;&lt;br&gt;&lt;/div&gt;" style="whiteSpace=wrap;html=1;shadow=0;labelBorderColor=none;" parent="1" vertex="1">
                    <mxGeometry x="1420" y="350" width="120" height="70" as="geometry"/>
                </mxCell>
                <mxCell id="55" value="" style="edgeStyle=none;html=1;shadow=0;labelBorderColor=none;" parent="1" source="50" target="54" edge="1">
                    <mxGeometry relative="1" as="geometry"/>
                </mxCell>
                <mxCell id="50" value="Iterate over sleep records to determin max and min Sleep time.&lt;br&gt;&lt;br&gt;If multiple in-bed the first will represent the the beggining of the sleep range&lt;br&gt;&lt;br&gt;Could be better?&lt;br&gt;&lt;br&gt;Note: BUG ALERT&lt;br&gt;If iphone or watch don't have iphone or watch in their name respectively this will fail" style="whiteSpace=wrap;html=1;shadow=0;labelBorderColor=none;" parent="1" vertex="1">
                    <mxGeometry x="1420" y="480" width="130" height="250" as="geometry"/>
                </mxCell>
                <mxCell id="57" value="Yes" style="edgeStyle=none;html=1;shadow=0;labelBorderColor=none;" parent="1" source="54" target="56" edge="1">
                    <mxGeometry relative="1" as="geometry"/>
                </mxCell>
                <mxCell id="59" value="No" style="edgeStyle=none;html=1;shadow=0;labelBorderColor=none;" parent="1" source="54" target="58" edge="1">
                    <mxGeometry relative="1" as="geometry">
                        <Array as="points">
                            <mxPoint x="1570" y="815"/>
                            <mxPoint x="1570" y="420"/>
                        </Array>
                    </mxGeometry>
                </mxCell>
                <mxCell id="54" value="at least 2 hours of sleep?" style="rhombus;whiteSpace=wrap;html=1;shadow=0;labelBorderColor=none;" parent="1" vertex="1">
                    <mxGeometry x="1440" y="770" width="85" height="85" as="geometry"/>
                </mxCell>
                <mxCell id="64" value="" style="edgeStyle=none;html=1;entryX=0.5;entryY=0;entryDx=0;entryDy=0;shadow=0;labelBorderColor=none;" parent="1" source="56" target="65" edge="1">
                    <mxGeometry relative="1" as="geometry">
                        <mxPoint x="660" y="810" as="targetPoint"/>
                        <Array as="points">
                            <mxPoint x="1290" y="980"/>
                            <mxPoint x="1290" y="730"/>
                            <mxPoint x="760" y="730"/>
                            <mxPoint x="760" y="760"/>
                            <mxPoint x="660" y="760"/>
                        </Array>
                    </mxGeometry>
                </mxCell>
                <mxCell id="56" value="return sleep range along with lengths of stand Asleep and In-bed&lt;br&gt;&lt;br&gt;Note: these lengths do no represent the lengths during sleep, the represent the lengths in" style="whiteSpace=wrap;html=1;shadow=0;labelBorderColor=none;" parent="1" vertex="1">
                    <mxGeometry x="1425" y="900" width="120" height="160" as="geometry"/>
                </mxCell>
                <mxCell id="62" value="" style="edgeStyle=none;html=1;entryX=0.5;entryY=0;entryDx=0;entryDy=0;shadow=0;labelBorderColor=none;" parent="1" source="58" target="56" edge="1">
                    <mxGeometry relative="1" as="geometry">
                        <mxPoint x="1735" y="680" as="targetPoint"/>
                        <Array as="points">
                            <mxPoint x="1735" y="840"/>
                            <mxPoint x="1590" y="840"/>
                        </Array>
                    </mxGeometry>
                </mxCell>
                <mxCell id="58" value="Iterate over stand records to determine sleep range&lt;br&gt;&lt;br&gt;looks to first find the biggest gap and call that sleep&lt;br&gt;&lt;br&gt;This is a dangerous game, because if was wearing my watch up to the point of bed and it died it may try to use my sitting on my butt during work the afternoon yesterday as my sleep.&lt;br&gt;&lt;br&gt;Note:&lt;br&gt;StandHours records are created by the watch, I have not seen any made by the iPhone&lt;br&gt;&lt;br&gt;However, Bill's Iphone makes StandHours while no one else's does." style="whiteSpace=wrap;html=1;shadow=0;labelBorderColor=none;" parent="1" vertex="1">
                    <mxGeometry x="1660" y="240" width="150" height="360" as="geometry"/>
                </mxCell>
                <mxCell id="67" value="" style="edgeStyle=none;html=1;shadow=0;labelBorderColor=none;" parent="1" source="65" target="66" edge="1">
                    <mxGeometry relative="1" as="geometry"/>
                </mxCell>
                <mxCell id="65" value="If (no heartrate or no motion) and no Stand and no inbed and no asleep then set sleep range min to last known record and add 8 hours&lt;br&gt;&lt;br&gt;Note: I hate this" style="whiteSpace=wrap;html=1;labelBackgroundColor=none;shadow=0;labelBorderColor=none;" parent="1" vertex="1">
                    <mxGeometry x="600" y="800" width="120" height="150" as="geometry"/>
                </mxCell>
                <mxCell id="69" value="Yes" style="edgeStyle=none;html=1;shadow=0;labelBorderColor=none;" parent="1" source="66" target="68" edge="1">
                    <mxGeometry relative="1" as="geometry"/>
                </mxCell>
                <mxCell id="71" value="No" style="edgeStyle=none;html=1;entryX=0;entryY=0.5;entryDx=0;entryDy=0;shadow=0;labelBorderColor=none;" parent="1" source="66" target="73" edge="1">
                    <mxGeometry relative="1" as="geometry">
                        <mxPoint x="830" y="1060" as="targetPoint"/>
                        <Array as="points">
                            <mxPoint x="750" y="1168"/>
                            <mxPoint x="750" y="1060"/>
                        </Array>
                    </mxGeometry>
                </mxCell>
                <mxCell id="66" value="Is motion or&lt;br&gt;&amp;nbsp;heartrate length&lt;br&gt;0?" style="rhombus;whiteSpace=wrap;html=1;labelBackgroundColor=none;shadow=0;labelBorderColor=none;" parent="1" vertex="1">
                    <mxGeometry x="600" y="1110" width="120" height="115" as="geometry"/>
                </mxCell>
                <mxCell id="86" value="" style="edgeStyle=none;html=1;entryX=0.5;entryY=0;entryDx=0;entryDy=0;shadow=0;labelBorderColor=none;" parent="1" source="68" target="87" edge="1">
                    <mxGeometry relative="1" as="geometry">
                        <mxPoint x="50" y="350" as="targetPoint"/>
                        <Array as="points">
                            <mxPoint x="520" y="1520"/>
                            <mxPoint x="520" y="280"/>
                            <mxPoint x="10" y="280"/>
                            <mxPoint x="10" y="320"/>
                            <mxPoint x="-70" y="320"/>
                        </Array>
                    </mxGeometry>
                </mxCell>
                <mxCell id="68" value="Return:&lt;br&gt;motion array&lt;br&gt;heart array&lt;br&gt;PtStates array&lt;br&gt;cs calcStats (min/max bed, min/max/avg hr)&lt;br&gt;" style="whiteSpace=wrap;html=1;labelBackgroundColor=none;shadow=0;labelBorderColor=none;" parent="1" vertex="1">
                    <mxGeometry x="540" y="1460" width="240" height="120" as="geometry"/>
                </mxCell>
                <mxCell id="76" value="Yes" style="edgeStyle=none;html=1;shadow=0;labelBorderColor=none;" parent="1" source="73" target="75" edge="1">
                    <mxGeometry relative="1" as="geometry"/>
                </mxCell>
                <mxCell id="78" value="No" style="edgeStyle=none;html=1;shadow=0;labelBorderColor=none;" parent="1" source="73" target="77" edge="1">
                    <mxGeometry relative="1" as="geometry"/>
                </mxCell>
                <mxCell id="73" value="motion from sleep or energy?" style="rhombus;whiteSpace=wrap;html=1;labelBackgroundColor=none;shadow=0;labelBorderColor=none;" parent="1" vertex="1">
                    <mxGeometry x="840" y="1000" width="110" height="120" as="geometry"/>
                </mxCell>
                <mxCell id="80" value="" style="edgeStyle=none;html=1;shadow=0;labelBorderColor=none;" parent="1" source="75" target="79" edge="1">
                    <mxGeometry relative="1" as="geometry"/>
                </mxCell>
                <mxCell id="75" value="&lt;div style=&quot;color: rgb(212 , 212 , 212) ; background-color: rgb(30 , 30 , 30) ; font-family: &amp;#34;menlo&amp;#34; , &amp;#34;monaco&amp;#34; , &amp;#34;courier new&amp;#34; , monospace ; line-height: 18px&quot;&gt;&lt;span style=&quot;color: #dcdcaa&quot;&gt;MotionWindow&lt;/span&gt;&lt;/div&gt;Make PtStates" style="whiteSpace=wrap;html=1;labelBackgroundColor=none;shadow=0;labelBorderColor=none;" parent="1" vertex="1">
                    <mxGeometry x="835" y="1200" width="120" height="60" as="geometry"/>
                </mxCell>
                <mxCell id="82" value="" style="edgeStyle=none;html=1;entryX=0.5;entryY=0;entryDx=0;entryDy=0;shadow=0;labelBorderColor=none;" parent="1" source="77" target="79" edge="1">
                    <mxGeometry relative="1" as="geometry">
                        <mxPoint x="1070" y="1210" as="targetPoint"/>
                        <Array as="points">
                            <mxPoint x="1070" y="1300"/>
                            <mxPoint x="920" y="1300"/>
                        </Array>
                    </mxGeometry>
                </mxCell>
                <mxCell id="77" value="Analyze Motion:&lt;br&gt;&lt;br&gt;create PtStates and adjust min bed and max bed as necessary" style="whiteSpace=wrap;html=1;labelBackgroundColor=none;shadow=0;labelBorderColor=none;" parent="1" vertex="1">
                    <mxGeometry x="1010" y="1010" width="120" height="100" as="geometry"/>
                </mxCell>
                <mxCell id="84" value="" style="edgeStyle=none;html=1;entryX=0.5;entryY=0;entryDx=0;entryDy=0;shadow=0;labelBorderColor=none;" parent="1" source="79" target="68" edge="1">
                    <mxGeometry relative="1" as="geometry">
                        <mxPoint x="895" y="1480" as="targetPoint"/>
                        <Array as="points">
                            <mxPoint x="895" y="1430"/>
                            <mxPoint x="690" y="1430"/>
                        </Array>
                    </mxGeometry>
                </mxCell>
                <mxCell id="79" value="calc heart rate min max avergae if heart rate withing sleep range" style="whiteSpace=wrap;html=1;labelBackgroundColor=none;shadow=0;labelBorderColor=none;" parent="1" vertex="1">
                    <mxGeometry x="835" y="1340" width="120" height="60" as="geometry"/>
                </mxCell>
                <mxCell id="91" value="No" style="edgeStyle=none;html=1;shadow=0;labelBorderColor=none;" parent="1" source="87" target="90" edge="1">
                    <mxGeometry relative="1" as="geometry"/>
                </mxCell>
                <mxCell id="95" value="Yes" style="edgeStyle=none;html=1;shadow=0;labelBorderColor=none;" parent="1" source="87" target="88" edge="1">
                    <mxGeometry relative="1" as="geometry"/>
                </mxCell>
                <mxCell id="87" value="Is motion or&lt;br&gt;heartrate length&lt;br&gt;0?" style="rhombus;whiteSpace=wrap;html=1;labelBackgroundColor=none;shadow=0;labelBorderColor=none;" parent="1" vertex="1">
                    <mxGeometry x="-130" y="365" width="120" height="115" as="geometry"/>
                </mxCell>
                <mxCell id="107" value="" style="edgeStyle=none;html=1;shadow=0;labelBorderColor=none;" parent="1" source="88" target="105" edge="1">
                    <mxGeometry relative="1" as="geometry"/>
                </mxCell>
                <mxCell id="88" value="&lt;div style=&quot;color: rgb(212 , 212 , 212) ; background-color: rgb(30 , 30 , 30) ; font-family: &amp;#34;menlo&amp;#34; , &amp;#34;monaco&amp;#34; , &amp;#34;courier new&amp;#34; , monospace ; line-height: 18px&quot;&gt;&lt;span style=&quot;color: #dcdcaa&quot;&gt;MakeHypno&lt;/span&gt;&lt;/div&gt;&lt;div style=&quot;color: rgb(212 , 212 , 212) ; font-family: &amp;#34;menlo&amp;#34; , &amp;#34;monaco&amp;#34; , &amp;#34;courier new&amp;#34; , monospace ; line-height: 18px&quot;&gt;&lt;span style=&quot;color: rgb(220 , 220 , 170)&quot;&gt;&lt;br&gt;&lt;/span&gt;&lt;/div&gt;&lt;div style=&quot;font-family: &amp;#34;menlo&amp;#34; , &amp;#34;monaco&amp;#34; , &amp;#34;courier new&amp;#34; , monospace ; line-height: 18px&quot;&gt;&lt;span style=&quot;font-family: &amp;#34;helvetica&amp;#34;&quot;&gt;Make it all Up!&lt;/span&gt;&lt;br&gt;&lt;/div&gt;&lt;div style=&quot;font-family: &amp;#34;menlo&amp;#34; , &amp;#34;monaco&amp;#34; , &amp;#34;courier new&amp;#34; , monospace ; line-height: 18px&quot;&gt;&lt;span style=&quot;font-family: &amp;#34;helvetica&amp;#34;&quot;&gt;&lt;br&gt;&lt;/span&gt;&lt;/div&gt;&lt;div style=&quot;font-family: &amp;#34;menlo&amp;#34; , &amp;#34;monaco&amp;#34; , &amp;#34;courier new&amp;#34; , monospace ; line-height: 18px&quot;&gt;&lt;span style=&quot;font-family: &amp;#34;helvetica&amp;#34;&quot;&gt;Note: I still hate this!&lt;/span&gt;&lt;/div&gt;&lt;div style=&quot;font-family: &amp;#34;menlo&amp;#34; , &amp;#34;monaco&amp;#34; , &amp;#34;courier new&amp;#34; , monospace ; line-height: 18px&quot;&gt;&lt;span style=&quot;font-family: &amp;#34;helvetica&amp;#34;&quot;&gt;Better way?&lt;/span&gt;&lt;/div&gt;" style="whiteSpace=wrap;html=1;labelBackgroundColor=none;shadow=0;labelBorderColor=none;" parent="1" vertex="1">
                    <mxGeometry x="-130" y="560" width="120" height="120" as="geometry"/>
                </mxCell>
                <mxCell id="100" value="" style="edgeStyle=none;html=1;shadow=0;labelBorderColor=none;" parent="1" source="90" target="99" edge="1">
                    <mxGeometry relative="1" as="geometry"/>
                </mxCell>
                <mxCell id="90" value="Max Best First Fit:&lt;br&gt;&lt;br&gt;Iterate over set numbers creating hypno with different params:&lt;br&gt;&lt;div style=&quot;color: rgb(212 , 212 , 212) ; background-color: rgb(30 , 30 , 30) ; font-family: &amp;#34;menlo&amp;#34; , &amp;#34;monaco&amp;#34; , &amp;#34;courier new&amp;#34; , monospace ; line-height: 18px&quot;&gt;&lt;span style=&quot;color: #dcdcaa&quot;&gt;HypnoCalc2&lt;/span&gt;&lt;/div&gt;&amp;nbsp;&lt;br&gt;&lt;br&gt;use poles, the records and params to generate a hypnogram" style="whiteSpace=wrap;html=1;labelBackgroundColor=none;shadow=0;labelBorderColor=none;" parent="1" vertex="1">
                    <mxGeometry x="60" y="320" width="120" height="200" as="geometry"/>
                </mxCell>
                <mxCell id="102" value="Yes" style="edgeStyle=none;html=1;shadow=0;labelBorderColor=none;" parent="1" source="99" target="101" edge="1">
                    <mxGeometry relative="1" as="geometry">
                        <Array as="points">
                            <mxPoint x="210" y="615"/>
                            <mxPoint x="210" y="533"/>
                        </Array>
                    </mxGeometry>
                </mxCell>
                <mxCell id="104" value="No" style="edgeStyle=none;html=1;shadow=0;labelBorderColor=none;" parent="1" source="99" target="103" edge="1">
                    <mxGeometry relative="1" as="geometry"/>
                </mxCell>
                <mxCell id="99" value="Is&lt;br&gt;Deep and REM&lt;br&gt;time within the&lt;br&gt;boundries?" style="rhombus;whiteSpace=wrap;html=1;labelBackgroundColor=none;shadow=0;labelBorderColor=none;" parent="1" vertex="1">
                    <mxGeometry x="60" y="560" width="120" height="110" as="geometry"/>
                </mxCell>
                <mxCell id="109" value="" style="edgeStyle=none;html=1;shadow=0;labelBorderColor=none;" parent="1" source="101" edge="1">
                    <mxGeometry relative="1" as="geometry">
                        <mxPoint x="50" y="810" as="targetPoint"/>
                        <Array as="points">
                            <mxPoint x="330" y="810"/>
                        </Array>
                    </mxGeometry>
                </mxCell>
                <mxCell id="101" value="Keep the Best First&lt;br&gt;&lt;div style=&quot;color: rgb(212 , 212 , 212) ; background-color: rgb(30 , 30 , 30) ; font-family: &amp;#34;menlo&amp;#34; , &amp;#34;monaco&amp;#34; , &amp;#34;courier new&amp;#34; , monospace ; line-height: 18px&quot;&gt;&lt;span style=&quot;color: #dcdcaa&quot;&gt;HypnoCalc2&lt;/span&gt;&lt;/div&gt;" style="whiteSpace=wrap;html=1;labelBackgroundColor=none;shadow=0;labelBorderColor=none;" parent="1" vertex="1">
                    <mxGeometry x="270" y="502.5" width="120" height="60" as="geometry"/>
                </mxCell>
                <mxCell id="106" value="" style="edgeStyle=none;html=1;entryX=0.5;entryY=0;entryDx=0;entryDy=0;shadow=0;labelBorderColor=none;" parent="1" source="103" target="105" edge="1">
                    <mxGeometry relative="1" as="geometry">
                        <mxPoint x="-70" y="770" as="targetPoint"/>
                        <Array as="points">
                            <mxPoint x="120" y="810"/>
                            <mxPoint x="20" y="810"/>
                            <mxPoint x="20" y="730"/>
                            <mxPoint x="-30" y="730"/>
                        </Array>
                    </mxGeometry>
                </mxCell>
                <mxCell id="103" value="Use best params possible&lt;br&gt;&lt;div style=&quot;color: rgb(212 , 212 , 212) ; background-color: rgb(30 , 30 , 30) ; font-family: &amp;#34;menlo&amp;#34; , &amp;#34;monaco&amp;#34; , &amp;#34;courier new&amp;#34; , monospace ; line-height: 18px&quot;&gt;&lt;span style=&quot;color: #dcdcaa&quot;&gt;HypnoCalc2&lt;/span&gt;&lt;/div&gt;" style="whiteSpace=wrap;html=1;labelBackgroundColor=none;shadow=0;labelBorderColor=none;" parent="1" vertex="1">
                    <mxGeometry x="60" y="720" width="120" height="60" as="geometry"/>
                </mxCell>
                <mxCell id="111" value="" style="edgeStyle=none;html=1;shadow=0;labelBorderColor=none;" parent="1" source="105" target="110" edge="1">
                    <mxGeometry relative="1" as="geometry"/>
                </mxCell>
                <mxCell id="105" value="&lt;div style=&quot;color: rgb(212 , 212 , 212) ; background-color: rgb(30 , 30 , 30) ; font-family: &amp;#34;menlo&amp;#34; , &amp;#34;monaco&amp;#34; , &amp;#34;courier new&amp;#34; , monospace ; line-height: 18px&quot;&gt;&lt;span style=&quot;color: #dcdcaa&quot;&gt;HypnoStatsCalc&lt;/span&gt;&lt;/div&gt;" style="whiteSpace=wrap;html=1;labelBackgroundColor=none;shadow=0;labelBorderColor=none;" parent="1" vertex="1">
                    <mxGeometry x="-130" y="775" width="120" height="60" as="geometry"/>
                </mxCell>
                <mxCell id="113" value="" style="edgeStyle=none;html=1;shadow=0;labelBorderColor=none;" parent="1" source="110" target="112" edge="1">
                    <mxGeometry relative="1" as="geometry"/>
                </mxCell>
                <mxCell id="110" value="&lt;div style=&quot;color: rgb(212 , 212 , 212) ; background-color: rgb(30 , 30 , 30) ; font-family: &amp;#34;menlo&amp;#34; , &amp;#34;monaco&amp;#34; , &amp;#34;courier new&amp;#34; , monospace ; line-height: 18px&quot;&gt;&lt;span style=&quot;color: #dcdcaa&quot;&gt;RetrieveHypnostatRangeSource&lt;/span&gt;&lt;/div&gt;&lt;div style=&quot;font-family: &amp;#34;menlo&amp;#34; , &amp;#34;monaco&amp;#34; , &amp;#34;courier new&amp;#34; , monospace ; line-height: 18px&quot;&gt;&lt;span style=&quot;background-color: rgb(42 , 42 , 42)&quot;&gt;&lt;br&gt;&lt;/span&gt;&lt;/div&gt;&lt;div style=&quot;font-family: &amp;#34;menlo&amp;#34; , &amp;#34;monaco&amp;#34; , &amp;#34;courier new&amp;#34; , monospace ; line-height: 18px&quot;&gt;&lt;span style=&quot;font-family: &amp;#34;helvetica&amp;#34;&quot;&gt;Retrieve the previous hypnostat if it exists&lt;/span&gt;&lt;br&gt;&lt;/div&gt;" style="whiteSpace=wrap;html=1;labelBackgroundColor=none;shadow=0;labelBorderColor=none;" parent="1" vertex="1">
                    <mxGeometry x="-170" y="890" width="200" height="85" as="geometry"/>
                </mxCell>
                <mxCell id="115" value="" style="edgeStyle=none;html=1;shadow=0;labelBorderColor=none;" parent="1" source="112" target="114" edge="1">
                    <mxGeometry relative="1" as="geometry"/>
                </mxCell>
                <mxCell id="112" value="make new Hypnostat or adjust as needed" style="whiteSpace=wrap;html=1;labelBackgroundColor=none;shadow=0;labelBorderColor=none;" parent="1" vertex="1">
                    <mxGeometry x="-130" y="1050" width="120" height="60" as="geometry"/>
                </mxCell>
                <mxCell id="117" value="" style="edgeStyle=none;html=1;shadow=0;labelBorderColor=none;" parent="1" source="114" target="116" edge="1">
                    <mxGeometry relative="1" as="geometry">
                        <Array as="points">
                            <mxPoint x="-200" y="1220"/>
                            <mxPoint x="-200" y="390"/>
                            <mxPoint x="-260" y="390"/>
                            <mxPoint x="-260" y="420"/>
                            <mxPoint x="-340" y="420"/>
                        </Array>
                    </mxGeometry>
                </mxCell>
                <mxCell id="114" value="Return:&lt;br&gt;Hypnostat" style="whiteSpace=wrap;html=1;labelBackgroundColor=none;shadow=0;labelBorderColor=none;" parent="1" vertex="1">
                    <mxGeometry x="-130" y="1190" width="120" height="60" as="geometry"/>
                </mxCell>
                <mxCell id="116" value="&lt;meta charset=&quot;utf-8&quot;&gt;&lt;div style=&quot;color: rgb(212, 212, 212); background-color: rgb(30, 30, 30); font-family: menlo, monaco, &amp;quot;courier new&amp;quot;, monospace; font-weight: normal; font-size: 12px; line-height: 18px;&quot;&gt;&lt;div&gt;&lt;span style=&quot;color: #dcdcaa&quot;&gt;respondWithJSON&lt;/span&gt;&lt;/div&gt;&lt;/div&gt;" style="whiteSpace=wrap;html=1;labelBackgroundColor=none;shadow=0;labelBorderColor=none;" parent="1" vertex="1">
                    <mxGeometry x="-400" y="480" width="120" height="60" as="geometry"/>
                </mxCell>
            </root>
        </mxGraphModel>
    </diagram>
</mxfile>